<svg width="40" height="31" viewBox="0 0 40 31" fill="none" xmlns="http://www.w3.org/2000/svg">
<g clip-path="url(#clip0_312_459)">
<path d="M35.5001 18.9875L20.8751 30.3219C20.7362 30.4296 20.5973 30.5049 20.4584 30.548C20.3195 30.591 20.1667 30.6125 20.0001 30.6125C19.8334 30.6125 19.6806 30.591 19.5417 30.548C19.4029 30.5049 19.264 30.4296 19.1251 30.3219L4.50008 18.9875C4.19453 18.7507 4.04175 18.4494 4.04175 18.0834C4.04175 17.7174 4.19453 17.416 4.50008 17.1792C4.83341 16.9209 5.22925 16.7917 5.68758 16.7917C6.14591 16.7917 6.54175 16.9209 6.87508 17.1792L20.0001 27.3511L33.1251 17.1792C33.4584 16.9209 33.8542 16.7971 34.3126 16.8079C34.7709 16.8186 35.1529 16.9424 35.4584 17.1792C35.7917 17.4375 35.9584 17.7443 35.9584 18.0995C35.9584 18.4547 35.8056 18.7507 35.5001 18.9875Z" fill="white"/>
</g>
<defs>
<clipPath id="clip0_312_459">
<rect width="31" height="40" fill="white" transform="translate(0 31) rotate(-90)"/>
</clipPath>
</defs>
</svg>
