<svg width="40" height="31" viewBox="0 0 40 31" fill="none" xmlns="http://www.w3.org/2000/svg">
<g clip-path="url(#clip0_316_226)">
<path d="M4.49992 12.0125L19.1249 0.678075C19.2638 0.570437 19.4027 0.495089 19.5416 0.452034C19.6805 0.408978 19.8333 0.38745 19.9999 0.38745C20.1666 0.38745 20.3194 0.408978 20.4583 0.452034C20.5971 0.495089 20.736 0.570437 20.8749 0.678076L35.4999 12.0125C35.8055 12.2493 35.9583 12.5506 35.9583 12.9166C35.9583 13.2826 35.8055 13.584 35.4999 13.8208C35.1666 14.0791 34.7708 14.2083 34.3124 14.2083C33.8541 14.2083 33.4583 14.0791 33.1249 13.8208L19.9999 3.64891L6.87492 13.8208C6.54159 14.0791 6.14575 14.2029 5.68742 14.1921C5.22909 14.1814 4.84714 14.0576 4.54159 13.8208C4.20825 13.5625 4.04159 13.2557 4.04159 12.9005C4.04159 12.5453 4.19436 12.2493 4.49992 12.0125Z" fill="white"/>
</g>
<defs>
<clipPath id="clip0_316_226">
<rect width="31" height="40" fill="white" transform="translate(40) rotate(90)"/>
</clipPath>
</defs>
</svg>
