<svg width="26" height="26" viewBox="0 0 26 26" fill="none" xmlns="http://www.w3.org/2000/svg">
<circle cx="13" cy="13" r="12" fill="white" stroke="#FBCD31" stroke-width="1.2"/>
<path d="M11.3818 18C11.2987 18 11.2226 17.9865 11.1534 17.9596C11.0841 17.9327 11.0149 17.8857 10.9457 17.8184L7.1869 14.1659C7.0623 14.0448 7 13.8969 7 13.722C7 13.5471 7.0623 13.3991 7.1869 13.278C7.3115 13.157 7.45687 13.0964 7.623 13.0964C7.78914 13.0964 7.9345 13.157 8.05911 13.278L11.3818 16.5067L18.9201 9.18161C19.0447 9.06054 19.1936 9 19.3666 9C19.5397 9 19.6885 9.06054 19.8131 9.18161C19.9377 9.30269 20 9.44731 20 9.61547C20 9.78363 19.9377 9.92825 19.8131 10.0493L11.8179 17.8184C11.7487 17.8857 11.6794 17.9327 11.6102 17.9596C11.541 17.9865 11.4649 18 11.3818 18Z" fill="#FBCD31"/>
</svg>
