<svg width="25" height="17" viewBox="0 0 25 17" fill="none" xmlns="http://www.w3.org/2000/svg">
<path d="M14.8558 5.55934V4.6975C15.5272 4.36286 16.2464 4.11188 17.0132 3.94456C17.7801 3.77724 18.5673 3.69358 19.375 3.69358C19.8365 3.69358 20.2797 3.7228 20.7043 3.78122C21.129 3.83961 21.5673 3.92248 22.0192 4.02982V4.86325C21.5833 4.72591 21.1582 4.6308 20.744 4.57792C20.3297 4.52504 19.8734 4.4986 19.375 4.4986C18.5673 4.4986 17.7789 4.58818 17.0096 4.76734C16.2404 4.9465 15.5224 5.2105 14.8558 5.55934ZM14.8558 12.2836V11.3673C15.4952 11.035 16.2103 10.7858 17.0012 10.6197C17.7921 10.4535 18.5833 10.3705 19.375 10.3705C19.8365 10.3705 20.2797 10.3997 20.7043 10.4581C21.129 10.5165 21.5673 10.5993 22.0192 10.7067V11.5401C21.5833 11.4028 21.1582 11.3077 20.744 11.2548C20.3297 11.2019 19.8734 11.1755 19.375 11.1755C18.5673 11.1755 17.7789 11.2718 17.0096 11.4643C16.2404 11.6569 15.5224 11.93 14.8558 12.2836ZM14.8558 8.94512V8.03592C15.5272 7.7013 16.2464 7.45033 17.0132 7.28301C17.7801 7.11569 18.5673 7.03203 19.375 7.03203C19.8365 7.03203 20.2797 7.06123 20.7043 7.11963C21.129 7.17803 21.5673 7.2609 22.0192 7.36824V8.20166C21.5833 8.06435 21.1582 7.96925 20.744 7.91637C20.3297 7.86349 19.8734 7.83705 19.375 7.83705C18.5673 7.83705 17.7789 7.93452 17.0096 8.12946C16.2404 8.3244 15.5224 8.59628 14.8558 8.94512ZM5.44231 13.922C6.59846 13.922 7.72283 14.0581 8.81544 14.3304C9.90802 14.6027 10.9888 15.0269 12.0577 15.6031V3.05195C11.1202 2.35743 10.0737 1.83299 8.91822 1.47863C7.76274 1.12428 6.6041 0.947096 5.44231 0.947096C4.66681 0.947096 3.99497 1.00116 3.42678 1.10928C2.85859 1.2174 2.21312 1.39142 1.49038 1.63136C1.29806 1.69448 1.16184 1.78524 1.08172 1.90364C1.00159 2.02202 0.961531 2.15224 0.961531 2.2943V13.9481C0.961531 14.1533 1.04166 14.3071 1.20191 14.4097C1.36218 14.5123 1.53846 14.5321 1.73075 14.4689C2.15223 14.2921 2.68228 14.1568 3.32091 14.0629C3.95953 13.9689 4.66667 13.922 5.44231 13.922ZM13.0192 15.6031C14.0769 15.0269 15.1378 14.6027 16.2019 14.3304C17.266 14.0581 18.3846 13.922 19.5577 13.922C20.3333 13.922 21.0469 13.9678 21.6983 14.0593C22.3498 14.1509 22.8734 14.2598 23.2693 14.3861C23.4615 14.465 23.6378 14.4531 23.7981 14.3505C23.9583 14.2479 24.0385 14.0861 24.0385 13.8652V2.2943C24.0385 2.15224 23.9984 2.02596 23.9183 1.91546C23.8382 1.80498 23.7019 1.71028 23.5096 1.63136C22.8173 1.37722 22.1813 1.19965 21.6017 1.09863C21.0221 0.997606 20.3407 0.947096 19.5577 0.947096C18.3846 0.947096 17.232 1.12428 16.0998 1.47863C14.9675 1.83299 13.9407 2.35743 13.0192 3.05195V15.6031ZM12.5264 17C11.472 16.3149 10.3438 15.7897 9.14181 15.4243C7.9399 15.0589 6.70673 14.8762 5.44231 14.8762C4.85077 14.8762 4.26979 14.9211 3.69938 15.0111C3.12896 15.1011 2.55128 15.2321 1.96634 15.4042C1.48509 15.5983 1.03705 15.5401 0.622219 15.2294C0.207406 14.9188 0 14.4964 0 13.9622V2.33927C0 1.99991 0.0889376 1.68698 0.266813 1.40048C0.444708 1.11401 0.69551 0.905256 1.01922 0.774237C1.71795 0.505898 2.4397 0.309779 3.18447 0.18588C3.92924 0.0619599 4.68185 0 5.44231 0C6.72133 0 7.96096 0.182319 9.16119 0.546958C10.3614 0.911576 11.4872 1.45298 12.5385 2.17118C13.5689 1.45298 14.6815 0.911576 15.8762 0.546958C17.0709 0.182319 18.2981 0 19.5577 0C20.3165 0 21.0675 0.0619599 21.8107 0.18588C22.5539 0.309779 23.2749 0.505898 23.9736 0.774237C24.2973 0.902096 24.5493 1.11006 24.7296 1.39811C24.9099 1.68619 25 1.99991 25 2.33927V13.9622C25 14.503 24.7696 14.9228 24.3089 15.2214C23.8482 15.52 23.3726 15.5652 22.8822 15.3568C22.3341 15.1958 21.7812 15.0755 21.2235 14.9957C20.6658 14.916 20.1105 14.8762 19.5577 14.8762C18.2892 14.8762 17.0638 15.0601 15.8815 15.4279C14.6993 15.7956 13.5809 16.3197 12.5264 17Z" fill="white"/>
</svg>
